PathFileType	4	(X/Y/Z)	Patient4_TMGait_0pt6_01_left_41.trc.trc
DataRate	CameraRate	NumFrames	NumMarkers	Units	OrigDataRate	OrigDataStartFrame	OrigNumFrames
82.840236686391	82.840236686391	6	33	mm	82.840236686391	71	       141
Frame#	Time	Sacral			L.Shoulder			Chest			R.Shoulder			Neck			R.ASIS			L.ASIS			R.Thigh.Superior			R.Thigh.Lateral			R.Thigh.Inferior			R.Patella			L.Thigh.Superior			L.Thigh.Lateral			L.Thigh.Inferior			L.Patella			L.Shank.Superior			L.Shank.Lateral			L.Shank.Inferior			R.Shank.Superior			R.Shank.Lateral			R.Shank.Inferior			R.Heel			R.Midfoot.Superior			R.Midfoot.Lateral			R.Toe			L.Heel			L.Midfoot.Lateral			L.Midfoot.Superior			L.Toe			L.Elbow			L.Wrist			R.Elbow			R.Wrist			
		X1	Y1	Z1	X2	Y2	Z2	X3	Y3	Z3	X4	Y4	Z4	X5	Y5	Z5	X6	Y6	Z6	X7	Y7	Z7	X8	Y8	Z8	X9	Y9	Z9	X10	Y10	Z10	X11	Y11	Z11	X12	Y12	Z12	X13	Y13	Z13	X14	Y14	Z14	X15	Y15	Z15	X16	Y16	Z16	X17	Y17	Z17	X18	Y18	Z18	X19	Y19	Z19	X20	Y20	Z20	X21	Y21	Z21	X22	Y22	Z22	X23	Y23	Z23	X24	Y24	Z24	X25	Y25	Z25	X26	Y26	Z26	X27	Y27	Z27	X28	Y28	Z28	X29	Y29	Z29	X30	Y30	Z30	X31	Y31	Z31	X32	Y32	Z32	X33	Y33	Z33	

71	50.725000000000	758.329501230318	1000.804948327095	408.434371105355	939.242281891079	1431.081719840214	235.054846412532	1027.280476988422	1368.609537796267	405.773434116219	925.441237101092	1441.939022478397	568.736779747433	900.444178955742	1492.212722460419	385.067252051735	978.714374907723	943.361088089790	541.017184998621	983.572736250574	963.967424976886	266.047221948829	1055.769018859176	772.389903412731	517.806972184684	1015.524057859624	648.673959506054	591.066202252697	1108.584321882658	613.980537913766	515.086790348596	1144.030298417592	529.849849975289	533.404896504154	983.249913156954	734.145433533175	294.855641258615	865.796127492719	638.260012311357	234.644179041658	925.981287956939	546.618277241802	300.151092015705	911.046145450280	481.102725391728	310.289806413018	880.743884150644	414.837872273558	304.769700673991	781.434030271481	304.684035382087	260.887061087374	830.067156021026	193.470653211475	336.062606053612	1126.931819401143	440.303234762550	541.970317443947	1070.016011881229	327.580692218383	603.454249873461	1138.575872708836	240.343942312214	553.814731902868	1044.790409127442	53.515172981822	522.949609345799	1206.224205820304	126.724079598510	566.198356007600	1127.494866151906	50.464399300945	598.119323363721	1330.034770002765	89.950122956800	594.839017772025	698.656203826893	39.687164938965	390.551680733264	771.625022301706	34.500336916785	309.206406259958	855.040052790110	96.301496880016	332.925185700369	982.907994712252	45.000740669106	305.808940167422	1038.888481129310	1102.680133973419	99.620804251476	1294.787285164615	1069.387109089471	116.886847671906	763.905199084806	1143.910859844666	682.393313606594	703.024649787862	894.133386354043	717.611822895562	
72	50.737071428571	759.220181933097	999.733212051195	410.231382875836	938.929759613893	1429.928089198304	236.161808755617	1027.239512745904	1367.932178601106	406.882418444825	925.363293813175	1441.351037274051	569.797950883009	900.192349961864	1491.174090613536	386.112417410058	979.660543376996	941.994707390982	542.655165221776	984.217402168376	963.198498076357	267.626461853367	1055.795889704403	769.410557710540	519.821426860766	1012.774800749768	645.260501276002	590.836877031688	1106.383617619127	610.540460906313	515.710856138138	1140.083985308552	526.205885194369	532.503839023880	982.774604927611	733.064732517539	295.720270936297	864.476811140976	637.941793379624	235.748997920502	924.152803271421	545.703320719270	300.867630421549	908.695107126143	479.963431226728	311.037885852237	877.662598506259	413.979143752152	305.356239750240	776.937876812284	305.127763244261	261.374958851915	824.231304101697	193.123092777025	336.134234211329	1122.953859028072	436.514401524839	540.504392442448	1065.383896595594	323.614217272769	600.785607101511	1133.838170082233	236.569547880313	550.868789957144	1039.157513964413	51.251265207385	518.542672043705	1201.243967238270	122.586342471021	562.731437928864	1121.453068686731	47.403690629050	594.109861165203	1324.385907577621	84.192590070753	591.530416175190	691.400846646509	39.992831453002	390.362519292182	764.410697242447	34.574844336775	309.169307994462	847.925652974480	96.248196924536	332.892635995604	975.733670119652	44.579010159952	305.820159446285	1038.945760298316	1101.724169992369	101.037063112346	1295.205962943490	1075.200617653109	119.269654563315	762.969287565074	1144.235402799146	683.611793766433	701.554029358559	894.491472914777	718.596055730099	
73	50.749142857143	760.287709934908	998.655201457831	412.341670575358	938.449720704579	1428.773477369693	237.392092975501	1027.226288308692	1367.328949852202	408.053043826079	925.364637065341	1440.720009414785	571.021223550384	899.918934712092	1490.146458245805	387.300398422550	980.873179542789	940.611426484045	544.339420135399	984.889401602332	962.412997148953	269.248696275245	1056.251620949690	766.354368980042	521.763477681655	1010.242072617396	641.904745340726	590.407823377702	1104.296703622489	607.092523511436	516.040689744368	1136.106979277804	522.344208499415	531.231274209365	982.632489375113	732.007388545461	296.621467775442	863.412266110931	637.621078801705	237.015894083435	922.695390344904	544.771195285322	301.647878769090	906.747020915597	478.732447811122	311.891839162185	874.908694719369	413.048950646529	306.055764978327	772.667603341996	305.623940452489	261.977337675496	818.514215128224	192.777417591760	336.270558438445	1118.604006450291	432.466800462123	538.785554302343	1060.032501797959	319.689149670349	598.102363414848	1127.804989600704	232.504718712831	547.780983588568	1031.280749224407	49.148745278018	514.534835639041	1194.320825543537	118.143756364162	559.017325783150	1113.300992471812	44.547467786065	590.385769989646	1316.787175312439	77.835353851250	587.952072409161	684.145378701144	40.386485535891	390.158753185715	757.205207167304	34.687614965973	309.131389661701	840.842781462474	96.226503547175	332.854547987161	968.574742586600	44.114119450509	305.821300003713	1038.602706003456	1100.591977911204	102.612348169247	1295.023046509294	1079.843665035994	121.669780867032	762.915508470670	1143.913177640680	684.908858515040	701.686626338592	894.000606336018	719.594190072844	
74	50.761214285714	761.512893609578	997.621593400761	414.730965055539	937.834946772060	1427.662173919559	238.756398805729	1027.266673090508	1366.819062999749	409.291925242276	925.482594429540	1440.067445950874	572.419131588636	899.661778023336	1489.175809648058	388.641978250999	982.323441772201	939.260524986514	546.045435431263	985.559340683475	961.622172013763	270.901655054968	1057.056579920391	763.266061814213	523.551243764102	1007.937424727492	638.726152354100	589.849466233944	1102.256138850718	603.714132247725	516.056324800902	1132.097078422365	518.413515828352	529.641943754881	982.775033157611	731.006154116456	297.557471221598	862.595072512730	637.310094314917	238.439570439184	921.613045336749	543.845095015659	302.501342128781	905.226658384278	477.422013978352	312.833508304029	872.477783466549	412.069866056871	306.864849798514	768.618703645557	306.199488468234	262.699740770700	812.916054944910	192.461384745917	336.474610069035	1113.995356521873	428.340775379357	536.912522350038	1054.263283544798	315.909269379213	595.564207798781	1120.898651306513	228.337269254266	544.696284092063	1021.870715425684	47.194147534197	511.112186144175	1186.032619972301	113.682046427856	555.236168786231	1103.764012884791	42.013381858303	587.118307536039	1307.895436098437	71.400266586703	584.264522177273	676.892794178769	40.910659751581	389.948210418238	750.010826220030	34.854891816196	309.095379148110	833.810770495746	96.243241057852	332.803605932065	961.436248483098	43.604869915209	305.810229546863	1037.835617815530	1099.301748508228	104.342052964731	1294.286864404889	1083.268817620316	124.063066303404	763.761093413107	1142.969695606964	686.305526095812	703.419578891076	892.696418802336	720.618852654973	
75	50.773285714286	762.861419461335	996.695523281323	417.350955789036	937.125898152666	1426.651725814969	240.263011460196	1027.384274458970	1366.428167503705	410.604857872922	925.753832519307	1439.427636291757	573.999366251208	899.461055019508	1488.319895758575	390.144377140259	983.965768373099	938.004536292925	547.752815923195	986.199089086013	960.854234141647	272.585819205478	1058.107824955523	760.225691750067	525.109996495704	1005.890702136477	635.861205222457	589.254147588558	1100.211565029253	600.510978463801	515.763733759029	1128.077267182061	514.593753056404	527.834465124089	983.157118666819	730.105759287421	298.538400489512	862.038710894526	637.020384002869	240.011539378460	920.938314144506	542.954693859784	303.438761259629	904.189271630209	476.047702733827	313.834743129906	870.391131614234	411.067358478196	307.771289142563	764.804869920401	306.891613309882	263.544557872625	807.451291967476	192.209214971657	336.742161494837	1109.264407172649	424.341496641947	535.009441382988	1048.384478403398	312.404030641410	593.330483754388	1113.550255572390	224.285407289361	541.770669379878	1011.641810853171	45.416008107361	508.392003641050	1176.959709246209	109.489036364300	551.602121480953	1093.544173130996	39.902002931125	584.434449947458	1298.343503383372	65.373410902522	580.683124384380	669.651592677018	41.624214441191	389.738949457452	742.832679847034	35.099392704034	309.064102557802	826.858320176335	96.303718350517	332.728621646761	954.325097928387	43.052796824764	305.785692789539	1036.618965225677	1097.883352311455	106.227838166140	1293.031226934126	1085.438996079651	126.425893805297	765.520911663902	1141.456226984504	687.820952320144	706.756447151035	890.642384002293	721.678759759213	
76	50.785357142857	764.285293728262	995.948222400374	420.143951260937	936.368262262680	1425.809885882514	241.916950712766	1027.597441133440	1366.186639556004	411.996206049732	926.210230726013	1438.846710778877	575.762890078198	899.353910509627	1487.643011147314	391.810153562543	985.739706606224	936.914339572350	549.449075742734	986.780356361556	960.154950909406	274.315058909441	1059.287674295295	757.345192242523	526.381410443988	1004.147213318493	633.448269922136	588.725540312986	1098.137875806646	597.607025830828	515.198293648711	1124.093286043231	511.074937350482	525.943119466909	983.745418241012	729.360020316013	299.583358259280	861.783621749967	636.759975677601	241.718202549494	920.740826247050	542.132724739244	304.466482695659	903.727107086560	474.626059849952	314.854314834326	868.703635166345	410.066022080162	308.750924926348	761.266024790106	307.746217036367	264.507993053183	802.154117975740	192.060552373018	337.059164082617	1104.554179428097	420.672382598903	533.211840751065	1042.673545998239	309.309201986781	591.543236992479	1106.147321062379	220.565091677732	539.153309444644	1001.226575060529	43.867267640104	506.413786997660	1167.619140500285	105.807257069517	548.329248434855	1083.241057288471	38.271895776267	582.401441344245	1288.671369713085	60.134053253544	577.438656975349	662.438092857424	42.604784570701	389.536978614384	735.679781007818	35.452408432400	309.039703976502	820.024118543487	96.412094846477	332.613594353383	947.248829665821	42.463514238637	305.747811748226	1034.926215194584	1096.380222420567	108.277939019204	1291.273744479402	1086.326254346926	128.735934652151	768.204897681385	1139.446997918529	689.468661724245	711.703770723551	887.928225991914	722.778892748221	
